<svg width="30" height="22" viewBox="0 0 30 22" fill="none" xmlns="http://www.w3.org/2000/svg">
<g clip-path="url(#clip0_1186_500)">
<path d="M26.918 6.51836C26.9355 6.71172 26.9355 6.90938 26.9355 7.10273C26.9355 13.0625 20.748 19.9332 9.43945 19.9332C5.95313 19.9332 2.71875 19.1941 0 17.9094C0.492187 17.9523 0.972656 17.9652 1.48242 17.9652C4.35938 17.9652 7.00195 17.252 9.11719 16.0402C6.41602 15.9973 4.14844 14.6996 3.36914 12.9121C3.75 12.9551 4.13086 12.9809 4.5293 12.9809C5.08008 12.9809 5.63086 12.925 6.14648 12.8262C3.32813 12.4094 1.21875 10.5918 1.21875 8.40039V8.34453C2.03906 8.67969 2.98828 8.89023 3.99609 8.91602C2.33789 8.1082 1.25391 6.72461 1.25391 5.16055C1.25391 4.32266 1.55859 3.55352 2.0918 2.8832C5.12109 5.62031 9.66797 7.40781 14.7715 7.60117C14.6777 7.26602 14.6191 6.91797 14.6191 6.56992C14.6191 4.08633 17.3613 2.0625 20.7656 2.0625C22.5352 2.0625 24.1348 2.6082 25.2598 3.48477C26.6484 3.29141 27.9844 2.91328 29.1621 2.39766C28.7051 3.44609 27.7324 4.32266 26.4609 4.88125C27.6973 4.78242 28.8984 4.5332 30 4.18516C29.1621 5.07891 28.1133 5.87383 26.918 6.51836Z" fill="white"/>
</g>
<defs>
<clipPath id="clip0_1186_500">
<rect width="30" height="22" fill="white"/>
</clipPath>
</defs>
</svg>
